<?xml version="1.0" encoding="utf-8"?>
<!-- Generator: Adobe Illustrator 21.0.2, SVG Export Plug-In . SVG Version: 6.00 Build 0)  -->
<svg version="1.1" id="Layer_1" xmlns="http://www.w3.org/2000/svg" xmlns:xlink="http://www.w3.org/1999/xlink" x="0px" y="0px"
	 viewBox="0 0 10 16" style="enable-background:new 0 0 10 16;" xml:space="preserve">
<style type="text/css">
	.st0{fill:#FFFFFF;filter:url(#Adobe_OpacityMaskFilter);}
	.st1{mask:url(#path-1-inside-1_1_);}
</style>
<path d="M5,1c2.2,0,4,1.8,4,4c0,3.4-2.7,7.5-4,9.4C3.7,12.5,1,8.4,1,5C1,2.8,2.8,1,5,1z M5,0C2.2,0,0,2.2,0,5c0,5,5,11,5,11
	s5-6,5-11C10,2.2,7.8,0,5,0z"/>
<defs>
	<filter id="Adobe_OpacityMaskFilter" filterUnits="userSpaceOnUse" x="2" y="2" width="6" height="6">
		<feColorMatrix  type="matrix" values="1 0 0 0 0  0 1 0 0 0  0 0 1 0 0  0 0 0 1 0"/>
	</filter>
</defs>
<mask maskUnits="userSpaceOnUse" x="2" y="2" width="6" height="6" id="path-1-inside-1_1_">
	<path class="st0" d="M5,4c0.6,0,1,0.4,1,1S5.6,6,5,6S4,5.6,4,5S4.4,4,5,4z M5,3C3.9,3,3,3.9,3,5s0.9,2,2,2s2-0.9,2-2S6.1,3,5,3z"/>
</mask>
<path class="st1" d="M5,5h2c0-1.1-0.9-2-2-2V5z M5,5v2c1.1,0,2-0.9,2-2H5z M5,5H3c0,1.1,0.9,2,2,2V5z M5,5V3C3.9,3,3,3.9,3,5H5z
	 M5,2C3.3,2,2,3.3,2,5h2c0-0.5,0.5-1,1-1V2z M2,5c0,1.7,1.3,3,3,3V6C4.5,6,4,5.5,4,5H2z M5,8c1.7,0,3-1.3,3-3H6c0,0.5-0.5,1-1,1V8z
	 M8,5c0-1.7-1.3-3-3-3v2c0.5,0,1,0.5,1,1H8z"/>
</svg>
