<?xml version="1.0" encoding="utf-8"?>
<!-- Generator: Adobe Illustrator 21.0.2, SVG Export Plug-In . SVG Version: 6.00 Build 0)  -->
<svg version="1.1" id="Layer_1" xmlns="http://www.w3.org/2000/svg" xmlns:xlink="http://www.w3.org/1999/xlink" x="0px" y="0px"
	 viewBox="0 0 20 20" style="enable-background:new 0 0 20 20;" xml:space="preserve">
<path d="M11.5,11c2.5,0,4.5,2,4.5,4.5V17H4v-1.5C4,13,6,11,8.5,11H11.5z M11.5,10h-3c-3,0-5.5,2.4-5.5,5.5V18c0,0,0,0,0,0H17
	c0,0,0,0,0,0v-2.5C17,12.4,14.6,10,11.5,10z"/>
<path d="M10,3c1.4,0,2.5,1.1,2.5,2.5S11.4,8,10,8S7.5,6.9,7.5,5.5S8.6,3,10,3z M10,2C8.1,2,6.5,3.6,6.5,5.5S8.1,9,10,9
	s3.5-1.6,3.5-3.5S11.9,2,10,2z"/>
</svg>
