<?xml version="1.0" encoding="utf-8"?>
<!-- Generator: Adobe Illustrator 19.1.0, SVG Export Plug-In . SVG Version: 6.00 Build 0)  -->
<svg version="1.1" id="Layer_1" xmlns:sketch="http://www.bohemiancoding.com/sketch/ns"
	 xmlns="http://www.w3.org/2000/svg" xmlns:xlink="http://www.w3.org/1999/xlink" x="0px" y="0px" width="205px" height="205px"
	 viewBox="-6 -29.5 205 205" style="enable-background:new -6 -29.5 205 205;" xml:space="preserve">
<style type="text/css">
	.st0{fill:#BBDEAE;}
	.st1{fill:#00B192;}
	.st2{fill:#CCEBE9;}
	.st3{fill:#6DCAD2;}
	.st4{fill:#00A0B0;}
	.st5{fill:#FFFFFF;}
</style>
<title>TEI 4</title>
<desc>Created with Sketch.</desc>
<g id="Iconography" sketch:type="MSPage">
	<g id="TEI" transform="translate(-1405.000000, 0.000000)" sketch:type="MSLayerGroup">
		<g id="TEI-4" transform="translate(1405.000000, 0.000000)" sketch:type="MSShapeGroup">
			<g id="Imported-Layers">
				<path id="Fill-1" class="st0" d="M103.1-7.7c31.9,2,58.8,22.5,70.1,50.9l19.3-6.3C178.5,0.4,144-26,103-28L103.1-7.7"/>
				<path id="Fill-2" class="st1" d="M176.3,52.8c1.7,6.4,2.5,13.2,2.5,20.1c0,25-11.4,47.4-29.3,62.2l11.9,16.4
					c22.9-18.5,37.6-46.9,37.6-78.6c0-9.1-1.2-18-3.5-26.4L176.3,52.8"/>
				<path id="Fill-3" class="st2" d="M22.9,43.2c11.3-28.4,38.2-49,70-50.9l0-20.3C52.1-25.9,17.6,0.4,3.7,37L22.9,43.2"/>
				<path id="Fill-4" class="st3" d="M34.7,151.6l11.9-16.4C28.7,120.4,17.3,98,17.3,72.9c0-6.9,0.9-13.7,2.5-20.1L0.5,46.6
					C-1.7,55-2.9,63.8-2.9,72.9C-2.9,104.7,11.8,133.1,34.7,151.6"/>
				<path id="Fill-5" class="st4" d="M141.3,141.1c-12.5,8-27.4,12.6-43.3,12.6c-15.9,0-30.7-4.6-43.3-12.6l-11.9,16.4
					C58.7,167.9,77.7,174,98,174c20.4,0,39.3-6,55.2-16.4L141.3,141.1"/>
				<path id="Fill-6" d="M4.1,121.4C-2.5,121.4-8,116-8,109.3c0-6.7,5.4-12.1,12.1-12.1c6.7,0,12.1,5.4,12.1,12.1
					C16.3,116,10.8,121.4,4.1,121.4"/>
				<path id="Fill-7" class="st5" d="M4.1,99.2c5.6,0,10.1,4.5,10.1,10.1c0,5.6-4.5,10.1-10.1,10.1c-5.6,0-10.1-4.5-10.1-10.1
					C-6,103.7-1.4,99.2,4.1,99.2 M4.1,95.2c-7.8,0-14.1,6.3-14.1,14.1c0,7.8,6.3,14.1,14.1,14.1c7.8,0,14.1-6.3,14.1-14.1
					C18.3,101.5,11.9,95.2,4.1,95.2"/>
				<path id="Fill-8" d="M60.6,59.1h20.9v4.4h-7.8v21.6h-5.3V63.5h-7.8V59.1"/>
				<path id="Fill-9" d="M85.6,59.1h19.1v4.4H90.9v5.8H103v4.3H90.9v7h14v4.4H85.6V59.1"/>
				<path id="Fill-10" d="M111.8,59.1h5.3v26h-5.3V59.1z"/>
				<path id="Fill-11" d="M130.1,70.4h-6.8v-1.6l7.2-9.5h1.4V69h2.4v1.4h-2.4V74h-1.7V70.4L130.1,70.4z M125,69h5.1v-6.8h0L125,69
					L125,69L125,69z"/>
			</g>
		</g>
	</g>
</g>
</svg>
